<svg xmlns="http://www.w3.org/2000/svg" width="18" height="14" fill="none" xmlns:v="https://vecta.io/nano"><path d="M9 2.875a3.75 3.75 0 0 1 3.75 3.75c0 .383-.075.75-.18 1.095l2.295 2.295a8.85 8.85 0 0 0 2.385-3.397C15.953 3.333 12.75 1 9 1a8.89 8.89 0 0 0-2.73.428l1.628 1.627c.353-.105.72-.18 1.103-.18zM2.033.37c-.293.293-.293.765 0 1.058L3.51 2.905a8.92 8.92 0 0 0-2.76 3.72C2.047 9.918 5.25 12.25 9 12.25c1.14 0 2.227-.225 3.233-.615l2.04 2.04c.292.292.765.292 1.057 0s.293-.765 0-1.058L3.098.37c-.292-.293-.772-.293-1.065 0zM9 10.375a3.75 3.75 0 0 1-3.75-3.75c0-.577.135-1.125.367-1.605l1.178 1.178c-.022.135-.045.277-.045.427 0 1.245 1.005 2.25 2.25 2.25a2.02 2.02 0 0 0 .428-.053L10.605 10A3.61 3.61 0 0 1 9 10.375zm2.227-3.997c-.112-1.05-.937-1.867-1.98-1.98l1.98 1.98z" fill="#070e21"/></svg>