<svg xmlns="http://www.w3.org/2000/svg" width="12" height="10" fill="#070e21" xmlns:v="https://vecta.io/nano"><path d="M1.814 4.909c0-.049.019-.092.046-.121L1.5 4.442l.361.346c.027-.028.058-.039.086-.039h9.373c.028 0 .059.011.086.039l.361-.346-.361.346c.027.028.046.071.046.121s-.019.092-.046.121-.058.039-.086.039H1.947c-.028 0-.059-.011-.086-.039s-.046-.071-.046-.121z" stroke="#070e21"/><path fill-rule="evenodd" d="M.235 5.374a.66.66 0 0 1-.137-.214c-.032-.08-.048-.166-.048-.253s.016-.173.048-.253a.66.66 0 0 1 .137-.214L4.028.481a.62.62 0 0 1 .448-.193.62.62 0 0 1 .448.193c.119.124.185.292.185.467s-.067.343-.185.467L1.576 4.907l3.347 3.491c.119.124.185.292.185.467s-.067.343-.185.467a.62.62 0 0 1-.448.193.62.62 0 0 1-.448-.193L.235 5.374z"/></svg>