<svg xmlns="http://www.w3.org/2000/svg" width="18" height="17" fill="none" xmlns:v="https://vecta.io/nano"><path d="M14.274.687c-.77.037-1.537.372-2.137.95l-.038.038c-.03.02-.047.041-.062.063l-.05.063-7.525 7.562-.05.063a1.98 1.98 0 0 0 .05 2.725 2 2 0 0 0 2.8 0 .78.78 0 0 0 .1-.125.9.9 0 0 0 .1-.088l5.637-5.562A.8.8 0 0 0 12.449 5a.8.8 0 0 0-.475.237L6.336 10.8a.68.68 0 0 0-.062.088c-.008.005-.017.008-.025.013s-.008.017-.012.025a.68.68 0 0 0-.113.088c-.152.152-.373.153-.525 0s-.153-.372 0-.525l7.637-7.675.05-.062c.658-.606 1.536-.602 2.025-.112a.68.68 0 0 0 .113.087l.088.1c.458.458.381 1.423-.263 2.1l-.037.037-8.275 8.488c-.027.019-.052.041-.075.063-1.073 1.073-2.922 1.203-3.95.175-1.008-1.008-.903-2.831.125-3.912l.05-.05 6.813-6.737a.8.8 0 0 0-.65-1.375.8.8 0 0 0-.475.238l-6.775 6.7-.038.038-.05.063c-1.619 1.678-1.839 4.462-.137 6.163 1.689 1.689 4.458 1.509 6.138-.088l.05-.037.037-.037.05-.062.05-.062 8.262-8.437a.79.79 0 0 0 .15-.187c1.055-1.206 1.284-3.041.125-4.2l-.062-.05a.88.88 0 0 0-.125-.15c-.591-.591-1.386-.852-2.175-.812z" fill="#9ba0b5"/></svg>