<svg xmlns="http://www.w3.org/2000/svg" width="2" height="10" fill="none" xmlns:v="https://vecta.io/nano"><path d="M1 7.23a.49.49 0 0 1-.342-.132C.57 7.011.518 6.884.5 6.717L.013 1.599 0 1.467C0 1.195.092.98.276.822.469.656.711.572 1 .572s.526.083.711.25c.193.158.289.373.289.645l-.013.145L1.5 6.717c-.018.167-.075.294-.171.382-.088.088-.197.132-.329.132zm0 2.763c-.281 0-.513-.092-.697-.276a.99.99 0 0 1-.276-.711c0-.281.092-.513.276-.697.184-.193.417-.289.697-.289s.513.097.697.289c.184.184.276.417.276.697a.99.99 0 0 1-.276.711c-.184.184-.417.276-.697.276z" fill="#fff"/></svg>