<svg width="11" height="11" viewBox="0 0 11 11" fill="none" xmlns="http://www.w3.org/2000/svg">
<path d="M1.4001 0.600098C0.958098 0.600098 0.600098 0.958098 0.600098 1.4001V2.6001C0.600098 2.8209 0.779298 3.0001 1.0001 3.0001H9.0001C9.2209 3.0001 9.4001 2.8209 9.4001 2.6001V1.4001C9.4001 0.958098 9.0421 0.600098 8.6001 0.600098H1.4001ZM1.0001 3.8001C0.779298 3.8001 0.600098 3.9793 0.600098 4.2001V5.8001C0.600098 6.0209 0.779298 6.2001 1.0001 6.2001H7.80088V5.80088C7.80088 5.13928 8.33928 4.60088 9.00088 4.60088C9.14168 4.60088 9.2745 4.62952 9.4001 4.67432V4.2001C9.4001 3.9793 9.2209 3.8001 9.0001 3.8001H1.0001ZM9.00088 5.40088C8.77968 5.40088 8.60088 5.57968 8.60088 5.80088V9.63525L7.68291 8.71807C7.52651 8.56167 7.27447 8.56167 7.11807 8.71807C6.96167 8.87447 6.96167 9.12651 7.11807 9.28291L8.71729 10.8829C8.75449 10.9201 8.79855 10.9492 8.84775 10.9696C8.94535 11.01 9.05562 11.01 9.15322 10.9696C9.20242 10.9492 9.24689 10.9201 9.28369 10.8829L10.8829 9.28291C10.9609 9.20491 11.0009 9.10328 11.0009 9.00088C11.0009 8.89848 10.9609 8.79607 10.8829 8.71807C10.7265 8.56167 10.4745 8.56167 10.3181 8.71807L9.40088 9.63525V5.80088C9.40088 5.57968 9.22168 5.40088 9.00088 5.40088ZM1.0001 7.0001C0.779298 7.0001 0.600098 7.1793 0.600098 7.4001V8.6001C0.600098 9.0421 0.958098 9.4001 1.4001 9.4001H6.27275C6.22795 9.2729 6.20088 9.13968 6.20088 9.00088C6.20088 8.68048 6.32564 8.37884 6.55244 8.15244C6.77924 7.92564 7.08048 7.80088 7.40088 7.80088C7.53928 7.80088 7.67408 7.82405 7.80088 7.86885V7.0001H1.0001Z" fill="#0740FA"/>
</svg>
