<svg xmlns="http://www.w3.org/2000/svg" width="16" height="16" fill="none" xmlns:v="https://vecta.io/nano"><path d="M8.944 3.296c0 .521-.423.944-.944.944s-.944-.423-.944-.944V.944C7.056.423 7.479 0 8 0s.944.423.944.944v2.352zm0 11.76c0 .521-.423.944-.944.944s-.944-.423-.944-.944v-2.352c0-.521.423-.944.944-.944s.944.423.944.944v2.352zm3.76-6.112c-.521 0-.944-.423-.944-.944s.423-.944.944-.944h2.352c.521 0 .944.423.944.944s-.423.944-.944.944h-2.352zM0 8c0-.521.423-.944.944-.944h2.352c.521 0 .944.423.944.944s-.423.944-.944.944H.944C.423 8.944 0 8.521 0 8zm5.336-2.664a.94.94 0 0 1-1.328 0L2.344 3.672a.94.94 0 0 1 0-1.328.94.94 0 0 1 1.328 0l1.664 1.664a.94.94 0 0 1 0 1.328zm6.992-2.992a.94.94 0 0 1 1.328 0 .94.94 0 0 1 0 1.328l-1.664 1.664a.94.94 0 0 1-1.328 0 .94.94 0 0 1 0-1.328l1.664-1.664zM3.672 13.656a.94.94 0 0 1-1.328 0 .94.94 0 0 1 0-1.328l1.664-1.664a.94.94 0 0 1 1.328 0 .94.94 0 0 1 0 1.328l-1.664 1.664z" fill="url(#A)"/><defs><radialGradient id="A" cx="0" cy="0" r="1" gradientUnits="userSpaceOnUse" gradientTransform="translate(6.5 8) rotate(49.0856) scale(9.92472)"><stop/></radialGradient></defs></svg>