<svg xmlns="http://www.w3.org/2000/svg" width="22" height="22" fill="none" xmlns:v="https://vecta.io/nano"><path fill-rule="evenodd" d="M.688-.001A.69.69 0 0 0 0 .687v8.25a.69.69 0 0 0 .688.688h8.25a.69.69 0 0 0 .688-.687V.687a.69.69 0 0 0-.687-.687H.688zm.688 8.25V1.374H8.25v6.875H1.375zm11.688-8.25a.69.69 0 0 0-.687.687v8.25a.69.69 0 0 0 .688.688h8.25A.69.69 0 0 0 22 8.937V.687a.69.69 0 0 0-.687-.687h-8.25zm.688 8.25V1.374h6.875v6.875H13.75zM0 13.062a.69.69 0 0 1 .688-.687h8.25a.69.69 0 0 1 .688.688v8.25a.69.69 0 0 1-.687.688H.688A.69.69 0 0 1 0 21.312v-8.25zm1.375.688v6.875H8.25v-6.875H1.375zm11.688-1.375a.69.69 0 0 0-.687.688v8.25a.69.69 0 0 0 .688.688h8.25a.69.69 0 0 0 .688-.687v-8.25a.69.69 0 0 0-.687-.687h-8.25zm.688 8.25v-6.875h6.875v6.875H13.75z" fill="#a6aec9"/></svg>