<svg xmlns="http://www.w3.org/2000/svg" width="24" height="16" fill="none" xmlns:v="https://vecta.io/nano"><path fill-rule="evenodd" d="M9.773 1.811v12.945h4.455V9.188v-.055-7.322c0-.208-.247-.566-.805-.566h-2.846c-.559 0-.805.358-.805.566zm5.691 5.715V1.811c0-1.105-1.027-1.81-2.04-1.81h-2.846c-1.013 0-2.04.706-2.04 1.81v2.2c-.256-.097-.531-.149-.806-.149H4.887c-1.013 0-2.04.706-2.04 1.81v9.084H.617a.62.62 0 1 0 0 1.245h22.765a.62.62 0 1 0 0-1.245h-2.228V9.188c0-1.105-1.027-1.81-2.04-1.81h-2.846c-.274 0-.549.052-.804.149zm0 1.64v5.59h4.455V9.188c0-.208-.247-.566-.805-.566h-2.846c-.54 0-.788.334-.804.544zm-11.383 5.59V5.673c0-.208.247-.566.805-.566h2.846c.559 0 .805.358.805.566v9.084H4.082z" fill="#a6aec9"/></svg>