<svg xmlns="http://www.w3.org/2000/svg" width="22" height="22" fill="none" xmlns:v="https://vecta.io/nano"><path fill-rule="evenodd" d="M11 .001c-6.075 0-11 4.925-11 11s4.925 11 11 11 11-4.925 11-11-4.925-11-11-11zm.3 1.327l-.299.365.299-.365h0zm.301.014l.025.023a10.29 10.29 0 0 1 .501.496c.41.433.953 1.072 1.495 1.904a13.53 13.53 0 0 1 1.623 3.473h4.674c-1.394-3.301-4.568-5.666-8.318-5.896zm.913 3.145c.489.749.976 1.67 1.342 2.751H8.144c.366-1.08.854-2.001 1.342-2.751s.983-1.331 1.348-1.717L11 2.598l.166.171c.365.386.856.963 1.348 1.717zm1.96 6.512a11.7 11.7 0 0 0-.255-2.439H7.78c-.16.753-.255 1.567-.255 2.439s.095 1.689.256 2.443h6.437a11.7 11.7 0 0 0 .256-2.443zm-.62 3.765H8.146c.366 1.079.853 1.998 1.341 2.746.492.754.983 1.331 1.348 1.717L11 19.4l.166-.171c.365-.386.856-.963 1.348-1.717a12.26 12.26 0 0 0 1.341-2.746zm-7.422-1.322a13.04 13.04 0 0 1-.229-2.443c0-.865.084-1.679.228-2.439H1.633c-.203.78-.31 1.598-.31 2.441s.108 1.661.311 2.441h4.8zm-4.351 1.322h4.676a13.53 13.53 0 0 0 1.621 3.469c.542.832 1.085 1.471 1.495 1.904.205.217.378.383.501.496l.03.027c-3.753-.228-6.928-2.594-8.323-5.896zm13.162 0h4.676c-1.395 3.302-4.57 5.668-8.323 5.896l.03-.027c.123-.114.296-.28.501-.496a13.57 13.57 0 0 0 1.495-1.904c.601-.922 1.203-2.084 1.621-3.469zm5.124-1.322h-4.799a13.04 13.04 0 0 0 .229-2.443 13.04 13.04 0 0 0-.228-2.439h4.799c.203.78.31 1.598.31 2.441a9.69 9.69 0 0 1-.311 2.441zM8.378 3.765c-.601.922-1.205 2.087-1.623 3.473H2.081C3.476 3.937 6.649 1.571 10.4 1.342l-.025.023a10.28 10.28 0 0 0-.501.496c-.41.433-.953 1.072-1.495 1.904zm2.925 16.909l-.302-.369.302.369h0zm-.303-.37l-.303.37h0l.303-.37zm-.3-18.976l.3.366-.299-.366h0z" fill="#a6aec9"/></svg>