<svg xmlns="http://www.w3.org/2000/svg" width="23" height="17" fill="none" xmlns:v="https://vecta.io/nano"><path fill-rule="evenodd" d="M.5 0a.5.5 0 0 0-.5.5v5.331 5.329 4.436c0 .76.609 1.388 1.375 1.388h5.222l.035.001.035-.001h13.961c.766 0 1.375-.628 1.375-1.388v-4.429-.007-.007-5.316-.007-.007V.5a.5.5 0 0 0-.5-.5H.5zm6.632 15.985h13.496c.2 0 .375-.167.375-.388v-3.936H7.132v4.324zm0-5.324h13.871V6.331H7.132v4.329zm-1-4.329v4.329H1V6.331h5.132zm.545-1l-.045-.002-.045.002H1V1h20.003v4.331H6.677zm-.545 6.329v4.324H1.375c-.2 0-.375-.167-.375-.388v-3.936h5.132z" fill="#a6aec9"/></svg>