<svg xmlns="http://www.w3.org/2000/svg" width="22" height="17" fill="none" xmlns:v="https://vecta.io/nano"><path fill-rule="evenodd" d="M5.435 5.858c0-1.676.338-2.817.907-3.531.548-.686 1.39-1.072 2.645-1.072s2.096.386 2.645 1.072c.57.713.907 1.854.907 3.531 0 2.469-.729 3.321-1.203 3.705a3.79 3.79 0 0 1-.389.27l-.038.024h0c-.105.065-.255.158-.366.258-.149.134-.362.401-.294.789.05.29.246.509.385.648.593.594 1.316 1.022 2.024 1.376l1.063.499.007.003.987.463c.634.317 1.135.634 1.479 1.018.205.229.36.489.447.806-4.374.04-10.341.027-15.306-.002.087-.316.242-.575.447-.804.344-.384.845-.701 1.479-1.018.312-.156.641-.305.988-.463h0l.007-.003 1.062-.499c.708-.354 1.431-.783 2.024-1.376.139-.139.334-.358.385-.648.067-.388-.145-.655-.294-.789-.112-.1-.261-.193-.366-.258l-.038-.024a3.78 3.78 0 0 1-.389-.27c-.474-.383-1.203-1.236-1.203-3.705zM8.986-.001c-1.532 0-2.78.486-3.625 1.544-.823 1.031-1.182 2.505-1.182 4.316 0 2.762.839 4.011 1.67 4.683a4.58 4.58 0 0 0 .417.297c-.421.371-.936.678-1.511.966-.33.165-.671.32-1.019.478l-.018.008h0l-1.02.478c-.672.336-1.346.739-1.852 1.303C.322 14.657 0 15.394 0 16.339v.624l.624.004h16.728l.621-.007v-.622c0-.945-.322-1.681-.846-2.267-.505-.564-1.18-.967-1.852-1.303-.333-.167-.681-.325-1.02-.478h0l-.018-.008-1.019-.478c-.575-.288-1.09-.594-1.511-.966.121-.077.265-.175.417-.297.832-.672 1.67-1.921 1.67-4.683 0-1.811-.359-3.285-1.182-4.316C11.766.485 10.518-.001 8.986-.001zm6.721 4.159c.225-.144.538-.237.98-.237.643 0 1.025.194 1.267.496.263.329.448.894.448 1.802 0 1.31-.384 1.901-.66 2.231-.067.081-.131.149-.198.221l-.032.035-.002.002c-.068.073-.168.181-.244.299-.082.128-.183.339-.148.606.033.257.177.443.297.563.363.363.8.618 1.206.822.205.102.412.196.605.284h.001 0l.547.255c.344.172.585.329.742.502l-.354.005-.367.004-.194-.002-1.74-.016a.63.63 0 0 0-.632.624.63.63 0 0 0 .624.632l1.733.016.2.002.393-.004 1.199-.014.621-.007v-.622c0-.599-.207-1.077-.545-1.453-.319-.355-.735-.599-1.12-.792-.192-.096-.391-.186-.579-.271l-.012-.005-.562-.263c-.256-.128-.479-.258-.667-.401a5.57 5.57 0 0 0 .191-.216c.456-.547.951-1.42.951-3.037 0-1.043-.206-1.941-.724-2.588-.539-.673-1.328-.967-2.247-.967-.616 0-1.18.13-1.655.434a.63.63 0 0 0-.191.868c.187.293.575.378.867.192zm2.591 5.125l-.002-.002z" fill="#a6aec9"/></svg>