<svg xmlns="http://www.w3.org/2000/svg" width="22" height="22" fill="none" xmlns:v="https://vecta.io/nano"><path fill-rule="evenodd" d="M19.418.372c.467-.397 1.12-.485 1.674-.225A1.59 1.59 0 0 1 22 1.587v17.35a1.59 1.59 0 0 1-.909 1.44c-.553.26-1.206.173-1.673-.224-2.817-2.389-5.326-3.571-7.113-4.157-.894-.293-1.609-.438-2.093-.509l-.014 4.106c0 .531-.263 1.027-.7 1.322l-1.211.817c-.425.287-.961.346-1.438.16s-.834-.595-.958-1.097L4.555 15.39C1.995 15.116 0 12.925 0 10.263c0-2.847 2.282-5.156 5.098-5.156h4.406.001.001.002l.028-.001.131-.007.546-.061a12.73 12.73 0 0 0 2.093-.509c1.786-.586 4.296-1.768 7.112-4.157zM5.984 15.418l1.246 5.039c.015.061.059.111.117.134a.19.19 0 0 0 .176-.02l1.211-.817c.053-.036.086-.097.086-.162v-4.175H5.984zm4.214-1.34l.213.029c.556.082 1.347.243 2.32.563 1.948.639 4.616 1.906 7.574 4.415v.001a.19.19 0 0 0 .205.027c.068-.032.111-.101.111-.176V1.587c0-.075-.043-.144-.111-.176a.19.19 0 0 0-.205.028v.001c-2.958 2.509-5.626 3.776-7.574 4.415-.973.319-1.764.481-2.32.562l-.213.029v7.632zM8.819 6.502v7.522H5.098c-2.054 0-3.719-1.684-3.719-3.761s1.665-3.761 3.719-3.761h3.721z" fill="#a6aec9"/></svg>