<svg xmlns="http://www.w3.org/2000/svg" width="22" height="19" fill="none" xmlns:v="https://vecta.io/nano"><path fill-rule="evenodd" d="M0 .798A.8.8 0 0 1 .801 0h20.397A.8.8 0 0 1 22 .798a.8.8 0 0 1-.801.798H.801A.8.8 0 0 1 0 .798zm0 5.802a.8.8 0 0 1 .801-.798h20.397a.8.8 0 0 1 .801.798.8.8 0 0 1-.801.798H.801A.8.8 0 0 1 0 6.599zm0 5.802a.8.8 0 0 1 .801-.798h8.742a.8.8 0 0 1 .801.798.8.8 0 0 1-.801.798H.801A.8.8 0 0 1 0 12.401zm18.285-.798a.8.8 0 0 1 .801.798v2.103h2.113a.8.8 0 0 1 .801.798.8.8 0 0 1-.801.798h-2.113v2.103a.8.8 0 1 1-1.603 0v-2.103h-2.112a.8.8 0 0 1-.801-.798.8.8 0 0 1 .801-.798h2.112v-2.103a.8.8 0 0 1 .801-.798zM0 18.202a.8.8 0 0 1 .801-.798h8.742a.8.8 0 0 1 .801.798.8.8 0 0 1-.801.798H.801A.8.8 0 0 1 0 18.202z" fill="#a6aec9"/></svg>