<svg xmlns="http://www.w3.org/2000/svg" width="22" height="19" fill="none" xmlns:v="https://vecta.io/nano"><path fill-rule="evenodd" d="M1.361 1.578c0-.101.08-.184.179-.184H20.46c.099 0 .179.082.179.184v15.599l-2.455-1.256c-.192-.098-.417-.098-.609 0l-3.135 1.605-3.135-1.605c-.192-.098-.417-.098-.609 0L7.56 17.525l-3.135-1.605c-.192-.098-.417-.098-.609 0l-2.455 1.256V1.578zM1.541.001C.69.001 0 .707 0 1.578v16.726a.7.7 0 0 0 .323.593c.201.127.451.139.662.03l3.135-1.605 3.135 1.605c.192.098.417.098.609 0L11 17.323l3.136 1.605c.192.098.417.098.609 0l3.135-1.605 3.136 1.605c.211.108.462.097.662-.03a.7.7 0 0 0 .323-.593V1.578C22 .707 21.31.001 20.46.001H1.541zM7.38 6.175c0-.466.369-.844.824-.844s.824.378.824.844-.369.844-.824.844-.824-.378-.824-.844zm.824-2.237c-1.207 0-2.185 1.002-2.185 2.237s.978 2.237 2.185 2.237 2.185-1.002 2.185-2.237-.978-2.237-2.185-2.237zm7.147 1.631a.71.71 0 0 0 0-.985.67.67 0 0 0-.963 0l-7.74 7.923a.71.71 0 0 0 0 .985.67.67 0 0 0 .962 0l7.74-7.923zm-1.556 5.485c-.455 0-.824.378-.824.844s.369.844.824.844.824-.378.824-.844-.369-.844-.824-.844zm-2.185.844c0-1.236.978-2.237 2.185-2.237s2.185 1.002 2.185 2.237-.978 2.237-2.185 2.237-2.185-1.002-2.185-2.237z" fill="#a6aec9"/></svg>