<svg xmlns="http://www.w3.org/2000/svg" width="23" height="21" fill="none" xmlns:v="https://vecta.io/nano"><path d="M2.167 9.858v8.808a1 1 0 0 0 1 1H19.85a1 1 0 0 0 1-.983L21 9.692m-18.833.167h0a2.99 2.99 0 0 1-.801-2.775L2.75 1.002 7.417 1m-5.25 8.858h0a3.79 3.79 0 0 0 4.256-.596l.077-.071m14.5.5h0a2.56 2.56 0 0 0 .686-2.379L20.25 1.002 15.583 1M21 9.692l-.106.057c-1.434.765-3.195.542-4.394-.557h0m-10 0L7.417 1M6.5 9.192h0c1.137 1.546 3.331 1.835 4.829.636l.171-.136M7.417 1H11.5m0 0v8.692M11.5 1h4.083M11.5 9.692l.171.136c1.498 1.199 3.693.909 4.829-.636h0M15.583 1l.917 8.192" stroke="#a6aec9" stroke-width="1.3"/></svg>