<svg xmlns="http://www.w3.org/2000/svg" width="22" height="18" fill="none" xmlns:v="https://vecta.io/nano"><path fill-rule="evenodd" d="M12.215 2.405c0 .671-.544 1.215-1.215 1.215s-1.215-.544-1.215-1.215S10.329 1.19 11 1.19s1.215.544 1.215 1.215zM11 4.81c1.328 0 2.405-1.077 2.405-2.405S12.328 0 11 0C9.877 0 8.934.769 8.669 1.809H6.377a2.91 2.91 0 0 0-2.908 2.908v10.127l-2.453-2.453c-.232-.232-.609-.232-.842 0s-.232.609 0 .842l3.89 3.89 3.89-3.89c.232-.232.232-.609 0-.842s-.609-.232-.842 0l-2.453 2.453V4.717A1.72 1.72 0 0 1 6.377 3h2.292C8.933 4.04 9.877 4.81 11 4.81zm3.047 1.484c.232.232.609.232.842 0l2.456-2.456v10.131a1.72 1.72 0 0 1-1.717 1.717H9.846c-.329 0-.595.266-.595.595s.266.595.595.595h5.781a2.91 2.91 0 0 0 2.908-2.908V3.845l2.449 2.449c.232.232.609.232.842 0s.232-.609 0-.842l-3.89-3.89-3.89 3.89c-.232.232-.232.609 0 .842z" fill="#a6aec9"/></svg>