<svg xmlns="http://www.w3.org/2000/svg" width="23" height="19" fill="none" xmlns:v="https://vecta.io/nano"><path fill-rule="evenodd" d="M17.403-.001a.68.68 0 0 1 .557.289l.023.028.161.2.569.735 1.723 2.498c.627.999 1.262 2.136 1.742 3.284.477 1.14.821 2.338.821 3.446 0 2.128-1.195 3.976-2.951 4.917v2.926a.68.68 0 0 1-.68.677h-3.935-.003H.68a.68.68 0 0 1-.68-.677V6.556 1.657A1.66 1.66 0 0 1 1.663 0h12.233a.68.68 0 0 1 .679.677.68.68 0 0 1-.679.677H1.663c-.168 0-.304.136-.304.303v4.221h8.999a.68.68 0 0 1 .68.677.68.68 0 0 1-.68.677H1.359v10.412h13.395v-2.248c-1.756-.941-2.951-2.789-2.951-4.917 0-1.108.344-2.306.821-3.446.48-1.148 1.115-2.285 1.742-3.284l1.723-2.498.569-.735.161-.2.044-.053.012-.014.003-.004.001-.002h0l.001-.002-.002.001a.68.68 0 0 1 .522-.245h.002zm-.679 7.984V2.679l-1.205 1.788c-.603.962-1.198 2.03-1.64 3.087-.446 1.066-.716 2.073-.716 2.925 0 1.731 1.045 3.221 2.544 3.873.248.108.407.351.407.62v2.671h2.273.003.3v-2.671c0-.269.16-.513.408-.62 1.499-.652 2.544-2.142 2.544-3.873 0-.852-.271-1.86-.716-2.925-.442-1.057-1.037-2.126-1.64-3.087l-1.202-1.783v5.299c.58.259.984.839.984 1.513a1.66 1.66 0 1 1-3.327 0c0-.674.404-1.254.984-1.513zm.646 1.212c-.152.017-.27.145-.27.301 0 .167.136.303.304.303s.304-.136.304-.303c0-.156-.118-.284-.27-.301h-.034a.69.69 0 0 1-.034-.001z" fill="#a6aec9"/></svg>