<svg xmlns="http://www.w3.org/2000/svg" width="11" height="14" fill="none" xmlns:v="https://vecta.io/nano" fill="#323232" stroke="#070e21"><path d="M1.183.834h6.203c.004 0 .016.001.032.019s.032.048.032.087-.015.069-.032.087-.029.019-.032.019H1.746c-.62 0-1.064.531-1.064 1.106v7.273c0 .039-.015.069-.032.087s-.029.019-.032.019-.016-.001-.032-.019-.032-.048-.032-.087V1.546c0-.425.317-.712.628-.712zm2.256 2.424h6.203c.311 0 .628.287.628.712v8.485c0 .425-.317.712-.628.712H3.438c-.311 0-.628-.287-.628-.712V3.97c0-.425.317-.712.628-.712zm.564 9.697h5.075c.62 0 1.064-.531 1.064-1.106V4.576c0-.575-.444-1.106-1.064-1.106H4.002c-.62 0-1.064.531-1.064 1.106v7.273c0 .575.444 1.106 1.064 1.106z"/></svg>