<svg xmlns="http://www.w3.org/2000/svg" width="20" height="20" fill="none" opacity=".64" xmlns:v="https://vecta.io/nano"><path d="M2.5 14.167h5.833M2.5 10h6.667M2.5 5.833h6.667" stroke="#000" stroke-width="1.3" stroke-linecap="round" stroke-linejoin="round"/><path d="M10.062 14.309c-.068.377.249.691.633.691s.685-.317.787-.686c.315-1.14 1.398-1.981 2.685-1.981s2.37.84 2.685 1.981c.102.37.404.686.787.686s.701-.314.633-.691C17.93 12.429 16.222 11 14.167 11s-3.764 1.429-4.105 3.309zm1.327-6.642C11.389 6.194 12.633 5 14.167 5s2.778 1.194 2.778 2.667-1.244 2.665-2.778 2.667-2.778-1.194-2.778-2.667zm1.39-.019c-.011.728.589 1.33 1.348 1.352s1.395-.545 1.429-1.273v-.06c0-.736-.622-1.333-1.389-1.333-.759.001-1.376.586-1.387 1.314z" fill="#000"/></svg>